<svg version="1.1" id="Layer_1" xmlns="http://www.w3.org/2000/svg" xmlns:xlink="http://www.w3.org/1999/xlink" x="0px" y="0px"
	 width="100%" viewBox="0 0 320 320" enable-background="new 0 0 320 320" xml:space="preserve">
<path fill="#000000" opacity="1.000000" stroke="none" 
	d="
M221.000000,321.000000 
	C147.333344,321.000000 74.166695,321.000000 1.000029,321.000000 
	C1.000020,214.333359 1.000020,107.666733 1.000010,1.000072 
	C107.666618,1.000048 214.333237,1.000048 320.999878,1.000024 
	C320.999939,107.666595 320.999939,214.333191 320.999969,320.999878 
	C287.833344,321.000000 254.666672,321.000000 221.000000,321.000000 
M127.535439,146.942352 
	C108.661858,118.565674 89.831841,90.159660 70.796814,61.891701 
	C69.753006,60.341595 67.014290,59.160675 65.043839,59.129856 
	C50.393009,58.900715 35.736916,58.992615 21.082596,59.030678 
	C19.861563,59.033848 18.641422,59.381901 16.831776,59.660366 
	C17.999523,61.596985 18.783312,63.016602 19.677774,64.362671 
	C40.004059,94.951477 60.292854,125.565498 80.750328,156.066376 
	C82.952873,159.350235 82.946556,161.657837 80.745979,164.938843 
	C60.288799,195.439911 39.998070,226.052643 19.680147,256.647003 
	C18.734770,258.070526 17.989197,259.626709 17.048042,261.303802 
	C18.170053,261.638123 18.631613,261.894897 19.093884,261.896179 
	C34.746407,261.939667 50.400967,262.077728 66.048897,261.819214 
	C67.843781,261.789581 70.170158,259.907623 71.292152,258.239990 
	C90.131874,230.237991 108.285789,201.754517 127.822762,174.252274 
	C134.889954,164.303757 137.343216,156.515045 127.535439,146.942352 
M205.090988,139.394806 
	C207.402283,142.780472 210.085327,145.979919 211.904739,149.611984 
	C213.305496,152.408310 214.892426,153.091690 217.868744,153.077362 
	C245.201080,152.945694 272.534302,153.004089 299.867279,152.988831 
	C301.468811,152.987930 303.070251,152.829376 304.723633,152.741425 
	C304.723633,140.694656 304.723633,129.106049 304.723633,117.291092 
	C267.056763,117.291092 229.666534,117.291092 191.248734,117.291092 
	C194.866455,125.588936 200.048035,132.043243 205.090988,139.394806 
M297.411743,168.000000 
	C273.367493,168.000000 249.323257,168.000000 224.324265,168.000000 
	C232.058411,179.569748 239.243027,190.095200 246.140747,200.805435 
	C247.700165,203.226807 249.293716,204.076630 252.083359,204.056503 
	C268.247253,203.939880 284.412384,204.007843 300.577087,203.984314 
	C301.996460,203.982254 303.415497,203.770996 304.650543,203.671707 
	C304.650543,191.544907 304.650543,179.955643 304.650543,168.000000 
	C302.336060,168.000000 300.361267,168.000000 297.411743,168.000000 
M254.512726,235.955948 
	C242.327103,217.588699 230.170151,199.202347 217.949921,180.858139 
	C191.681198,141.425186 165.393829,102.004608 139.037537,62.630211 
	C138.048416,61.152531 136.274963,59.193882 134.841980,59.172951 
	C118.225143,58.930157 101.603470,59.017761 84.184120,59.017761 
	C85.149307,60.736855 85.691353,61.868454 86.379143,62.903175 
	C106.869057,93.728905 127.306755,124.589851 147.961746,155.304672 
	C150.478775,159.047607 150.880356,161.516281 148.155777,165.542435 
	C127.319229,196.332932 106.802414,227.339828 86.208672,258.294403 
	C85.553955,259.278503 85.142052,260.424194 84.372337,261.993134 
	C101.468369,261.993134 117.788239,262.057953 134.105438,261.878754 
	C135.517929,261.863281 137.382004,260.558777 138.242035,259.307220 
	C145.602890,248.595535 152.780228,237.757736 160.012817,226.957886 
	C165.830704,218.270554 171.649094,209.583557 177.634567,200.646591 
	C178.384033,201.468063 178.736557,201.770065 178.986938,202.141022 
	C191.688538,220.957626 204.443909,239.738617 217.001434,258.650970 
	C218.697220,261.204895 220.426865,262.095581 223.413132,262.065735 
	C238.073929,261.919281 252.736984,262.005737 267.399231,261.987854 
	C268.628967,261.986359 269.858521,261.821381 271.749268,261.684448 
	C265.896515,252.884186 260.448242,244.692093 254.512726,235.955948 
z"/>
<path fill="#453A62" opacity="1.000000" stroke="none" 
	d="
M127.767761,147.221222 
	C137.343216,156.515045 134.889954,164.303757 127.822762,174.252274 
	C108.285789,201.754517 90.131874,230.237991 71.292152,258.239990 
	C70.170158,259.907623 67.843781,261.789581 66.048897,261.819214 
	C50.400967,262.077728 34.746407,261.939667 19.093884,261.896179 
	C18.631613,261.894897 18.170053,261.638123 17.048042,261.303802 
	C17.989197,259.626709 18.734770,258.070526 19.680147,256.647003 
	C39.998070,226.052643 60.288799,195.439911 80.745979,164.938843 
	C82.946556,161.657837 82.952873,159.350235 80.750328,156.066376 
	C60.292854,125.565498 40.004059,94.951477 19.677774,64.362671 
	C18.783312,63.016602 17.999523,61.596985 16.831776,59.660366 
	C18.641422,59.381901 19.861563,59.033848 21.082596,59.030678 
	C35.736916,58.992615 50.393009,58.900715 65.043839,59.129856 
	C67.014290,59.160675 69.753006,60.341595 70.796814,61.891701 
	C89.831841,90.159660 108.661858,118.565674 127.767761,147.221222 
z"/>
<path fill="#8F4E8B" opacity="1.000000" stroke="none" 
	d="
M205.003876,139.039886 
	C200.048035,132.043243 194.866455,125.588936 191.248734,117.291092 
	C229.666534,117.291092 267.056763,117.291092 304.723633,117.291092 
	C304.723633,129.106049 304.723633,140.694656 304.723633,152.741425 
	C303.070251,152.829376 301.468811,152.987930 299.867279,152.988831 
	C272.534302,153.004089 245.201080,152.945694 217.868744,153.077362 
	C214.892426,153.091690 213.305496,152.408310 211.904739,149.611984 
	C210.085327,145.979919 207.402283,142.780472 205.003876,139.039886 
z"/>
<path fill="#8F4E8B" opacity="1.000000" stroke="none" 
	d="
M297.899109,168.000000 
	C300.361267,168.000000 302.336060,168.000000 304.650543,168.000000 
	C304.650543,179.955643 304.650543,191.544907 304.650543,203.671707 
	C303.415497,203.770996 301.996460,203.982254 300.577087,203.984314 
	C284.412384,204.007843 268.247253,203.939880 252.083359,204.056503 
	C249.293716,204.076630 247.700165,203.226807 246.140747,200.805435 
	C239.243027,190.095200 232.058411,179.569748 224.324265,168.000000 
	C249.323257,168.000000 273.367493,168.000000 297.899109,168.000000 
z"/>
<path fill="#5E5086" opacity="1.000000" stroke="none" 
	d="
M254.756363,236.227966 
	C260.448242,244.692093 265.896515,252.884186 271.749268,261.684448 
	C269.858521,261.821381 268.628967,261.986359 267.399231,261.987854 
	C252.736984,262.005737 238.073929,261.919281 223.413132,262.065735 
	C220.426865,262.095581 218.697220,261.204895 217.001434,258.650970 
	C204.443909,239.738617 191.688538,220.957626 178.986938,202.141022 
	C178.736557,201.770065 178.384033,201.468063 177.634567,200.646591 
	C171.649094,209.583557 165.830704,218.270554 160.012817,226.957886 
	C152.780228,237.757736 145.602890,248.595535 138.242035,259.307220 
	C137.382004,260.558777 135.517929,261.863281 134.105438,261.878754 
	C117.788239,262.057953 101.468369,261.993134 84.372337,261.993134 
	C85.142052,260.424194 85.553955,259.278503 86.208672,258.294403 
	C106.802414,227.339828 127.319229,196.332932 148.155777,165.542435 
	C150.880356,161.516281 150.478775,159.047607 147.961746,155.304672 
	C127.306755,124.589851 106.869057,93.728905 86.379143,62.903175 
	C85.691353,61.868454 85.149307,60.736855 84.184120,59.017761 
	C101.603470,59.017761 118.225143,58.930157 134.841980,59.172951 
	C136.274963,59.193882 138.048416,61.152531 139.037537,62.630211 
	C165.393829,102.004608 191.681198,141.425186 217.949921,180.858139 
	C230.170151,199.202347 242.327103,217.588699 254.756363,236.227966 
M176.454071,198.466385 
	C181.054596,197.976410 181.929214,202.182846 183.668961,204.725632 
	C194.675629,220.812759 205.456024,237.056351 216.160278,253.347397 
	C218.312515,256.622925 220.873779,258.094421 224.799652,258.044861 
	C236.460571,257.897614 248.124710,258.023254 259.787170,257.961853 
	C261.484894,257.952911 263.180267,257.504578 265.619354,257.152313 
	C264.365570,254.955795 263.642914,253.492737 262.745605,252.146088 
	C221.817398,190.724472 180.854233,129.326111 139.984818,67.865417 
	C137.710327,64.444977 135.085587,62.883266 130.958130,62.945908 
	C119.464615,63.120342 107.966454,62.966873 96.470795,63.043636 
	C94.641312,63.055851 92.815308,63.588783 90.088615,64.024727 
	C91.989166,67.124489 93.279671,69.403084 94.732735,71.572823 
	C113.272278,99.256256 131.771576,126.967094 150.445679,154.559586 
	C154.174210,160.068802 155.038483,164.517731 150.792191,170.660904 
	C132.416321,197.245453 114.613243,224.226135 96.638878,251.087524 
	C95.501373,252.787430 94.678627,254.697968 93.267265,257.337463 
	C96.149658,257.621857 98.053589,257.961243 99.959419,257.972229 
	C109.622559,258.028076 119.294159,257.764435 128.946457,258.092865 
	C134.184616,258.271118 137.517090,256.527466 140.430695,252.060684 
	C152.079117,234.202454 164.094070,216.583313 176.454071,198.466385 
z"/>
<path fill="#5E5086" opacity="1.000000" stroke="none" 
	d="
M176.213745,198.671051 
	C164.094070,216.583313 152.079117,234.202454 140.430695,252.060684 
	C137.517090,256.527466 134.184616,258.271118 128.946457,258.092865 
	C119.294159,257.764435 109.622559,258.028076 99.959419,257.972229 
	C98.053589,257.961243 96.149658,257.621857 93.267265,257.337463 
	C94.678627,254.697968 95.501373,252.787430 96.638878,251.087524 
	C114.613243,224.226135 132.416321,197.245453 150.792191,170.660904 
	C155.038483,164.517731 154.174210,160.068802 150.445679,154.559586 
	C131.771576,126.967094 113.272278,99.256256 94.732735,71.572823 
	C93.279671,69.403084 91.989166,67.124489 90.088615,64.024727 
	C92.815308,63.588783 94.641312,63.055851 96.470795,63.043636 
	C107.966454,62.966873 119.464615,63.120342 130.958130,62.945908 
	C135.085587,62.883266 137.710327,64.444977 139.984818,67.865417 
	C180.854233,129.326111 221.817398,190.724472 262.745605,252.146088 
	C263.642914,253.492737 264.365570,254.955795 265.619354,257.152313 
	C263.180267,257.504578 261.484894,257.952911 259.787170,257.961853 
	C248.124710,258.023254 236.460571,257.897614 224.799652,258.044861 
	C220.873779,258.094421 218.312515,256.622925 216.160278,253.347397 
	C205.456024,237.056351 194.675629,220.812759 183.668961,204.725632 
	C181.929214,202.182846 181.054596,197.976410 176.213745,198.671051 
z"/>
</svg>